<svg width="32" height="32" viewBox="0 0 32 32" fill="none" xmlns="http://www.w3.org/2000/svg">
<path d="M24.2236 16.9449C25.6698 15.1093 26.4747 12.8324 26.4747 10.4738C26.4747 4.69867 21.776 0 16 0C10.224 0 5.52533 4.69867 5.52533 10.4738C5.52533 12.8324 6.33022 15.1093 7.77644 16.9449C3 19.812 0 25.0187 0 30.6667C0 31.4027 0.596889 32 1.33333 32H30.6667C31.4031 32 32 31.4027 32 30.6667C32 25.0187 29 19.812 24.2236 16.9449ZM2.73378 29.3333C3.20711 24.6489 6.14889 20.4969 10.4973 18.5236C10.9084 18.3369 11.1973 17.9551 11.2649 17.5089C11.3324 17.0618 11.1693 16.6116 10.8311 16.3124C9.15378 14.8249 8.192 12.6964 8.192 10.4742C8.192 6.16933 11.6947 2.66667 16 2.66667C20.3053 2.66667 23.808 6.16933 23.808 10.4738C23.808 12.696 22.8462 14.8244 21.1689 16.312C20.8311 16.6116 20.668 17.0618 20.7351 17.5084C20.8022 17.9547 21.0911 18.3364 21.5027 18.5231C25.8511 20.4969 28.7929 24.6489 29.2662 29.3333H2.73378Z" fill="black"/>
</svg>
