<svg width="27" height="27" viewBox="0 0 27 27" fill="none" xmlns="http://www.w3.org/2000/svg">
<path d="M26.4432 9.95959C26.3383 8.85765 25.8598 7.87997 25.113 7.16811C24.6281 6.70594 24.0318 6.35396 23.3509 6.14212L5.99449 0.789248C4.50027 0.328068 2.88675 0.746486 1.7796 1.88569C0.675724 3.02147 0.298822 4.65113 0.798273 6.13137L6.62423 23.3646C7.2157 25.1143 8.73476 26.2636 10.5871 26.3605C12.4392 26.4574 14.1078 25.479 14.9377 23.8026L17.8469 17.9383L24.124 14.3816C25.7245 13.4747 26.6122 11.7778 26.4437 9.95929L26.4432 9.95959ZM22.9736 12.3096L16.0432 16.237L12.804 22.7735C12.4066 23.5742 11.6393 24.0244 10.7533 23.9763C10.229 23.9483 9.76903 23.7524 9.42346 23.423C9.18716 23.1977 9.00252 22.9049 8.88527 22.5659L3.05478 5.33058C2.83958 4.69262 2.99619 4.02168 3.46868 3.53712C3.94442 3.04918 4.61173 2.87581 5.24958 3.07481L22.606 8.42768C23.4392 8.68514 23.9844 9.35851 24.0648 10.2272C24.1484 11.0925 23.7423 11.8737 22.9736 12.3096Z" fill="black"/>
</svg>
